<?xml version="1.0" encoding="UTF-8"?>
<svg width="760" height="656" version="1.0" viewBox="231 250 380 328" xmlns="http://www.w3.org/2000/svg">
<defs>
<filter id="a" x="-.25" y="-.25" width="1.5" height="1.5" color-interpolation-filters="sRGB">
<feGaussianBlur result="result1" stdDeviation="1"/>
<feGaussianBlur in="result1" result="result6" stdDeviation="10"/>
<feComposite in="result6" in2="result1" operator="atop" result="result8"/>
<feComposite in="result6" in2="result8" operator="xor" result="fbSourceGraphic"/>
<feColorMatrix in="fbSourceGraphic" result="fbSourceGraphicAlpha" values="0 0 0 -1 0 0 0 0 -1 0 0 0 0 -1 0 0 0 0 2 0 "/>
<feGaussianBlur in="fbSourceGraphicAlpha" result="result0" stdDeviation="1"/>
<feSpecularLighting lighting-color="#ffffff" in="result0" result="result1" specularConstant="1.5" specularExponent="35" surfaceScale="-2">
<feDistantLight azimuth="230" elevation="60"/>
</feSpecularLighting>
<feComposite in="result1" in2="fbSourceGraphicAlpha" operator="in" result="result2"/>
<feComposite in="fbSourceGraphic" in2="result2" k2="1" k3="1" operator="arithmetic" result="result4"/>
<feComposite in2="result4" operator="atop" result="result91"/>
<feBlend in2="result91" mode="multiply"/>
</filter>
</defs>
<rect x="231" y="250" width="380" height="328" fill="none" fill-rule="evenodd"/>
<path d="m348.66 283.16c-37.599 1.6826-79.787 27.259-81.539 68.366-2.2445 50.084 27.177 95.497 62.842 128.22 27.656 25.85 58.194 49.949 91.103 68.072 46.659-26.981 90.056-61.46 123.31-104.17 21.395-29.632 36.16-67.933 28.509-104.76-10.039-37.597-52.82-58.035-89.452-55.249-29.556 3.3577-50.242 28.473-62.395 53.706-13.313-28.365-38.388-55.895-72.375-54.188z" fill="#f00" filter="url(#a)"/>
</svg>